<?xml version="1.0" encoding="UTF-8" standalone="no"?>
<!DOCTYPE svg PUBLIC "-//W3C//DTD SVG 1.1//EN" "http://www.w3.org/Graphics/SVG/1.1/DTD/svg11.dtd">
<svg width="100%" height="100%" viewBox="0 0 952 224" version="1.1" xmlns="http://www.w3.org/2000/svg" xmlns:xlink="http://www.w3.org/1999/xlink" xml:space="preserve" xmlns:serif="http://www.serif.com/" style="fill-rule:evenodd;clip-rule:evenodd;stroke-linejoin:round;stroke-miterlimit:2;">
    <g id="Logo" transform="matrix(1,0,0,1,0,-29)">
        <g id="Text" transform="matrix(1,0,0,1,71,-455)">
            <path d="M223.4,590.8C223.4,563.6 209.1,553.6 192.6,553.6C176.1,553.6 159.9,563.3 159.9,590.8C159.9,618.3 171.5,627.8 191.3,627.8C211.1,627.8 207.1,625.4 212.5,620.6C217.6,624.8 224.5,628.3 235.6,628.3L235.6,616.9C227.8,616.9 223.2,614.6 219.3,611.4C221.9,605.9 223.3,599 223.3,590.8L223.4,590.8ZM191.8,566.7C205,566.7 207.5,581.1 207.5,591.1C207.5,601.1 207.3,597.1 206.8,599.8C203,597.2 198.4,595.4 192,595.4C185.6,595.4 180.3,597.2 176.6,599.6C176.1,596.5 175.9,593.3 175.9,590.2C175.9,578.4 179.8,566.7 191.8,566.7ZM192.2,614.8C187.2,614.8 183.7,613.1 181.3,610.4C183.5,608.6 186.9,606.9 192.1,606.9C197.3,606.9 199.5,608.3 202.3,610.7C200,613.3 196.7,614.8 192.2,614.8Z" style="fill:rgb(2,0,86);fill-rule:nonzero;"/>
            <path d="M291.6,581.1L296.8,581.4L289.8,611.3L289.6,611.3L279.6,573.2L266.6,573.2L256.4,611.1L256.2,611.1L249.4,583.9C249,582.3 249.6,581.3 251.2,581.1L254.6,580.8L254.6,571.9L229.4,571.9L229.4,580.7L234.7,581.3L246.9,626.4L263.1,626.4L272.2,590.8L272.3,590.8L281.3,626.4L296.8,626.4L307.9,584.1C308.4,581.9 308.9,581.3 310.9,581L314,580.7L314,571.9L291.5,571.9L291.5,581.2L291.6,581.1Z" style="fill:rgb(2,0,86);fill-rule:nonzero;"/>
            <path d="M362.9,586.2C362.9,575.4 355.8,570.5 344.6,570.5C327,570.5 317.4,584.2 317.4,600.6C317.4,617 324.4,627.9 342.8,627.9C361.2,627.9 361.2,623.2 362.6,622.3L358.3,612.1C355.3,614.1 350.8,616.4 344.8,616.4C338.8,616.4 333.2,611.2 332.6,605C349.5,605.5 362.9,601.6 362.9,586.2ZM332.5,595.1C332.8,587.8 336.8,581.3 343.9,581.3C351,581.3 349.8,582.9 349.8,586.9C349.8,593.7 343.2,595.5 332.5,595.1Z" style="fill:rgb(2,0,86);fill-rule:nonzero;"/>
            <path d="M390.2,580.2L389.8,580.2L389.8,571.9L370.1,571.9L370.1,580.9L373.8,581.2C375.6,581.3 376.3,582.1 376.3,584.2L376.3,614C376.3,616.5 376,617.2 373.7,617.6L370.3,617.9L370.3,626.4L400.1,626.4L400.1,617.5L391.2,617.1L391.2,592.6C391.2,586.9 394.3,582.6 399.5,582.6C404.7,582.6 401.5,582.7 402.2,582.9C403,583.2 403.2,583.8 403.2,585.5L403.2,592.6L415.4,591.7L415.4,572.3C412.5,571 408.6,570.5 405.5,570.5C396.6,570.5 391.9,575.9 390.2,580.2Z" style="fill:rgb(2,0,86);fill-rule:nonzero;"/>
            <path d="M449.1,616.1C444.8,616.1 442.5,614.4 442.5,608L442.5,582.3L455.3,582.3L455.8,571.9L442.5,571.9L442.5,559.5L434.2,559.5C431.9,566 429,571.7 421.3,573.1L420,582.4L427.3,582.4L427.3,608.8C427.3,617.9 428.2,628.1 444.9,628.1C461.6,628.1 455.7,626.7 458.7,624.7L456.2,614.5C454.5,615.5 451.9,616.3 449,616.3L449.1,616.1Z" style="fill:rgb(2,0,86);fill-rule:nonzero;"/>
            <path d="M495,581.1L499.8,581.4L490.3,609.9L490,609.9L481.8,584.2C481.3,582.4 481.9,581.4 483.5,581.2L486.1,580.9L486.1,571.9L460.7,571.9L460.7,580.8L465.6,581.4L482.1,626.2L480.6,630.1C478.6,635.4 476.1,637.7 472.2,637.7C468.3,637.7 465.3,636.6 462.7,635.4L459.2,646.2C462.5,648.2 468,650 473.3,650C486.3,650 491.4,641.4 496.9,626.8L512.5,584.3C513.3,582 513.9,581.4 516,581.1L518.4,580.9L518.4,572L495,572L495,581.3L495,581.1Z" style="fill:rgb(2,0,86);fill-rule:nonzero;"/>
            <path d="M543.8,549.7L522.7,549.7L522.7,558.7L526.2,559C528.2,559.1 528.8,559.9 528.8,562.1L528.8,614C528.8,616.7 528.4,617.1 526.3,617.4L522.9,617.8L522.9,626.3L549.4,626.3L549.4,617.4L543.8,617.1L543.8,549.6L543.8,549.7Z" style="fill:rgb(2,0,86);fill-rule:nonzero;"/>
            <path d="M567.6,564.7C572.9,564.7 576.6,561.3 576.6,556.2C576.6,551.1 572.8,548.2 567.6,548.2C562.4,548.2 558.7,551.9 558.7,556.5C558.7,561.1 562.1,564.7 567.6,564.7Z" style="fill:rgb(2,0,86);fill-rule:nonzero;"/>
            <path d="M576.6,571.9L555.5,571.9L555.5,580.9L559,581.2C561,581.3 561.6,582.1 561.6,584.3L561.6,614C561.6,616.7 561.2,617.2 559.1,617.6L555.6,617.9L555.6,626.4L582.2,626.4L582.2,617.5L576.6,617.2L576.6,571.9Z" style="fill:rgb(2,0,86);fill-rule:nonzero;"/>
            <path d="M616.8,615.9C608.2,615.9 604.5,609.3 604.5,599C604.5,588.7 609,582.1 616.4,582.1C623.8,582.1 619,582.3 620.2,582.6C621.8,583 621.9,583.9 621.9,585.6L621.9,591.4L633.1,590.6L633.1,574.5C628.5,571.8 622.3,570.4 615.9,570.4C602.6,570.4 589.2,578 589.2,599.6C589.2,621.2 598.8,627.9 614.8,627.9C630.8,627.9 630,624.9 634.6,621.1L629.1,611.2C624.9,614.3 620.7,615.8 616.7,615.8L616.8,615.9Z" style="fill:rgb(2,0,86);fill-rule:nonzero;"/>
            <path d="M662.3,571.9L641.2,571.9L641.2,580.9L644.7,581.2C646.7,581.3 647.3,582.1 647.3,584.3L647.3,614C647.3,616.7 646.9,617.2 644.8,617.6L641.3,617.9L641.3,626.4L667.9,626.4L667.9,617.5L662.3,617.2L662.3,571.9Z" style="fill:rgb(2,0,86);fill-rule:nonzero;"/>
            <path d="M653.3,564.7C658.6,564.7 662.3,561.3 662.3,556.2C662.3,551.1 658.5,548.2 653.3,548.2C648.1,548.2 644.4,551.9 644.4,556.5C644.4,561.1 647.8,564.7 653.3,564.7Z" style="fill:rgb(2,0,86);fill-rule:nonzero;"/>
            <path d="M701.1,570.5C689.7,570.5 675.1,576.5 675.1,599.3C675.1,622.1 684,627.9 699.4,627.9C714.8,627.9 725.6,618.8 725.6,597.8C725.6,576.8 709.3,570.5 701.1,570.5ZM700.2,616.6C691.9,616.6 690.6,607.3 690.6,597.6C690.6,587.9 693.3,581.7 700.3,581.7C707.3,581.7 709.9,587.8 709.9,599.5C709.9,611.2 707.2,616.7 700.2,616.7L700.2,616.6Z" style="fill:rgb(2,0,86);fill-rule:nonzero;"/>
            <path d="M784.7,614.1L784.7,571.9L764.6,571.9L764.6,581L767.2,581.2C769.2,581.3 769.8,582.1 769.8,584.3L769.8,605.4C769.8,611.5 765.8,615.9 760.2,615.9C754.6,615.9 753.1,612.7 753.1,606.3L753.1,571.8L732.5,571.8L732.5,580.8L735.5,581.1C737.3,581.2 738.1,581.7 738.1,584.2L738.1,609.5C738.1,621.7 743.7,627.8 754.8,627.8C765.9,627.8 767.6,624.9 770.7,619.4L771,619.4L771,626.3L790,626.3L790,617.7L787.1,617.4C785.1,617.1 784.7,616.4 784.7,614L784.7,614.1Z" style="fill:rgb(2,0,86);fill-rule:nonzero;"/>
            <path d="M823.7,593.7C818,592 813.4,591.1 813.4,586.3C813.4,581.5 816.6,580.7 820.9,580.7C825.2,580.7 824.6,580.8 826.2,581.3C827.5,581.7 827.7,582.5 827.7,584.2L827.7,588.6L838.3,587.7L838.3,574.3C833.6,571.7 827.1,570.4 821.2,570.4C808.3,570.4 798.7,576.5 798.7,588C798.7,599.5 806.9,602.1 814.6,604.1C820.6,605.5 824.8,606.6 824.8,611.2C824.8,615.8 821.5,617.4 816.4,617.4C811.3,617.4 812,617 810.6,616.4C809.3,616 809,615.3 809,613.7L809,608.9L798.2,609.8L798.2,624.1C802.4,626.4 810.7,627.8 817.2,627.8C831.1,627.8 839.9,621.2 839.9,609.6C839.9,598 831.4,595.9 823.6,593.6L823.7,593.7Z" style="fill:rgb(2,0,86);fill-rule:nonzero;"/>
        </g>
        <g id="Q_icon" transform="matrix(1,0,0,1,-380,-295)">
            <g id="Key">
                <path d="M585.8,502.5L585.8,376.4C585.8,367.9 581,360.1 573.4,356.3L562.8,351C560.3,349.7 557.4,349.5 554.6,350.3C536.8,355.6 518.4,358.3 499.9,358.4C481.5,358.4 463.1,355.6 445.2,350.3C442.5,349.5 439.6,349.8 437,351L426.4,356.3C418.8,360.1 414,367.9 414,376.4L414,502.5L585.8,502.5Z" style="fill:rgb(244,238,212);fill-rule:nonzero;"/>
                <path d="M558.8,474.7C558.8,474.7 544,486.8 500,487C456,486.9 441.2,474.7 441.2,474.7L418.2,513.8C421.3,517.4 425.9,519.7 431,519.7L568.9,519.7C574,519.7 578.6,517.4 581.7,513.8L558.7,474.7L558.8,474.7Z" style="fill:rgb(224,58,62);fill-rule:nonzero;"/>
                <path d="M437.2,351.2L421.7,358.9C417.1,361.2 414.2,365.8 414.2,370.9L414.2,502.8C414.2,507 415.7,510.8 418.3,513.7L441.3,474.6L441.3,350C439.9,350.1 438.5,350.5 437.3,351.1L437.2,351.2Z" style="fill:rgb(252,183,39);fill-rule:nonzero;"/>
                <path d="M562.8,351.2L578.3,358.9C582.9,361.2 585.8,365.8 585.8,370.9L585.8,502.8C585.8,507 584.3,510.8 581.7,513.7L558.7,474.6L558.7,350C560.1,350.1 561.5,350.5 562.7,351.1L562.8,351.2Z" style="fill:rgb(246,130,31);fill-rule:nonzero;"/>
            </g>
            <path id="Q" d="M529.1,426.1C529.1,401.4 516.1,392.5 501.1,392.5C486.9,392.5 471.3,401.2 471.3,426.1C471.3,448.3 481.9,459.8 499.9,459.8C507.7,459.8 514.3,457.6 519.2,453.2C523.9,457 530.2,460.2 540.2,460L540.2,449.6C533,449.6 528.9,447.6 525.4,444.8C527.8,439.8 529.1,433.5 529.1,426.1ZM500.2,404.4C512.3,404.4 514.5,417.4 514.5,426.5C514.5,429.2 514.3,431.9 513.9,434.4C510.5,432.1 506.2,430.4 500.4,430.4C494.3,430.4 489.8,432 486.4,434.1C485.9,431.3 485.7,428.4 485.7,425.6C485.7,414.9 489.2,404.4 500.2,404.4ZM500.5,448C496,448 492.8,446.4 490.6,444C492.6,442.3 495.7,440.8 500.4,440.8C504.5,440.8 507.1,442.1 509.7,444.3C507.6,446.6 504.6,448 500.5,448Z" style="fill:rgb(2,0,86);fill-rule:nonzero;"/>
        </g>
    </g>
</svg>
